<svg id="Group_1034" data-name="Group 1034" xmlns="http://www.w3.org/2000/svg" width="15.939" height="17.967" viewBox="0 0 15.939 17.967">
  <g id="Group_1033" data-name="Group 1033">
    <path id="Path_749" data-name="Path 749" d="M73.137,114.908H61.481a.461.461,0,0,0-.346.115.392.392,0,0,0-.115.346l1.2,10.434a2.28,2.28,0,0,0,2.28,2h5.8a2.28,2.28,0,0,0,2.3-2.073l.99-10.411a.392.392,0,0,0-.115-.3A.461.461,0,0,0,73.137,114.908Zm-1.451,10.78a1.336,1.336,0,0,1-1.382,1.2H64.5a1.313,1.313,0,0,1-1.359-1.175l-1.152-9.881H72.63Z" transform="translate(-59.339 -109.84)" fill="#9c9c9c"/>
    <path id="Path_750" data-name="Path 750" d="M38.472,2.073H33.727V1.336A1.29,1.29,0,0,0,32.484,0H29.512A1.29,1.29,0,0,0,28.2,1.266q0,.035,0,.07v.737H23.454a.461.461,0,1,0,0,.921H38.472a.461.461,0,1,0,0-.921Zm-5.666-.737v.737H29.12V1.336a.368.368,0,0,1,.392-.415h2.9a.369.369,0,0,1,.394.342A.364.364,0,0,1,32.805,1.336Z" transform="translate(-22.993 0)" fill="#9c9c9c"/>
  </g>
</svg>
