<svg id="edit" xmlns="http://www.w3.org/2000/svg" width="18.058" height="17.967" viewBox="0 0 18.058 17.967">
  <path id="Path_751" data-name="Path 751" d="M16.666,48.7a.45.45,0,0,0-.45.45V53.14a1.351,1.351,0,0,1-1.349,1.349H2.249A1.351,1.351,0,0,1,.9,53.14V41.421a1.351,1.351,0,0,1,1.349-1.349H6.242a.45.45,0,1,0,0-.9H2.249A2.251,2.251,0,0,0,0,41.421V53.14a2.251,2.251,0,0,0,2.249,2.249H14.867a2.251,2.251,0,0,0,2.249-2.249V49.147a.45.45,0,0,0-.45-.45Zm0,0" transform="translate(0 -37.422)" fill="#9c9c9c"/>
  <path id="Path_752" data-name="Path 752" d="M120.263.854a2.024,2.024,0,0,0-2.862,0l-8.023,8.023a.45.45,0,0,0-.115.2l-1.055,3.809a.45.45,0,0,0,.553.554l3.809-1.055a.45.45,0,0,0,.2-.115l8.023-8.024a2.026,2.026,0,0,0,0-2.862Zm-9.906,8.316L116.924,2.6l2.118,2.118-6.567,6.567Zm-.423.849,1.692,1.692-2.34.648Zm10.22-6.411-.477.477-2.118-2.118.477-.477a1.124,1.124,0,0,1,1.59,0l.528.528A1.126,1.126,0,0,1,120.154,3.607Zm0,0" transform="translate(-103.325 -0.261)" fill="#9c9c9c"/>
</svg>
