<svg xmlns="http://www.w3.org/2000/svg" width="20" height="20" viewBox="0 0 20 20"><rect width="20" height="20" transform="translate(0 0)" fill="none"/><path d="M8.525,9.743a2.436,2.436,0,1,1-2.436,2.436A2.443,2.443,0,0,1,8.525,9.743Zm0-7.307A2.443,2.443,0,0,0,6.089,4.871h4.871A2.443,2.443,0,0,0,8.525,2.436Zm6.089,17.05H2.436A2.443,2.443,0,0,1,0,17.05V7.307A2.443,2.443,0,0,1,2.436,4.871H3.654a4.871,4.871,0,1,1,9.743,0h1.218A2.443,2.443,0,0,1,17.05,7.307V17.05A2.443,2.443,0,0,1,14.614,19.485Z" transform="translate(1.647 0.412)" fill="#009345" fill-rule="evenodd"/></svg>