<svg xmlns="http://www.w3.org/2000/svg" xmlns:xlink="http://www.w3.org/1999/xlink" width="169.592" height="69.58" viewBox="0 0 169.592 69.58"><defs><clipPath id="a"><rect width="169.592" height="69.58" fill="none"/></clipPath></defs><g transform="translate(118.699 48.7)"><g transform="translate(-118.7 -48.7)" clip-path="url(#a)"><path d="M27.9,22.857s19.288-11.43,38.576-9.287C75.763,7.14,93.622-3.575,120.054,5s32.861,10.716,35,20.717c1.429-7.144-2.143-10-2.143-10l2.857-4.286c-8.572,0-7.858.714-27.861-5.715S89.336-5,66.476,11.427c-11.43,0-22.146,2.143-38.576,11.43" transform="translate(-7.969 0.003)" fill="#fff"/><path d="M47.9,30.533s7.858-7.144,16.431-4.286a15.573,15.573,0,0,1,7.858,5.715l1.429-.714s-9.287-15-25.717-.714" transform="translate(-13.681 -6.959)" fill="#fff"/><path d="M121.9,31.721h26.432s7.144-9.287,16.431-5.715c5,2.143,6.429,4.286,6.429,4.286s-4.286-8.572-14.287-6.429c-7.144,2.143-9.287,5.715-9.287,5.715Z" transform="translate(-34.818 -6.717)" fill="#fff"/><path d="M94.9,14.572s44.291,4.286,46.434-4.286c-2.857,2.857-14.287,3.572-14.287,3.572L128.476,6,124.9,13.858" transform="translate(-27.106 -1.714)" fill="#fff"/><path d="M4,62.286a7,7,0,0,1-3-2.572,7.072,7.072,0,0,1-1-3.858,9.787,9.787,0,0,1,1.357-5.143A9.287,9.287,0,0,1,5,47.213,11.287,11.287,0,0,1,10.428,46a9.858,9.858,0,0,1,4.215.857,5.929,5.929,0,0,1,2.715,2.429l-4,3.143A3.572,3.572,0,0,0,10.071,50.5a4.191,4.191,0,0,0-3.858,2.429A5.786,5.786,0,0,0,5.642,55.5a3.072,3.072,0,0,0,.929,2.357A3.429,3.429,0,0,0,9,58.714a4.643,4.643,0,0,0,3.643-1.929l3.286,3.143a8.287,8.287,0,0,1-3.286,2.5,11,11,0,0,1-4.215.786A10.073,10.073,0,0,1,4,62.286" transform="translate(0.001 -13.137)" fill="#fff"/><path d="M34.259,60.145H27.972L26.329,63H20.4L30.9,46.5h5.5L40.331,63H34.759Zm-.786-4-.786-4.286-2.429,4.215Z" transform="translate(-5.827 -13.282)" fill="#fff"/><path d="M65.931,55.681a6.929,6.929,0,0,1-3.286,2.429L65.431,62.9H59.644l-2.357-4.143H55.929L55.072,62.9H49.5l3.286-16.5h7.429a8,8,0,0,1,5.072,1.429,4.786,4.786,0,0,1,1.786,4,6.429,6.429,0,0,1-1.143,3.858m-6.572-4.929H57.5l-.786,3.858H59a2.572,2.572,0,0,0,1.786-.571,2.072,2.072,0,0,0,.643-1.643q0-1.643-2.072-1.643" transform="translate(-14.138 -13.247)" fill="#fff"/><path d="M86.243,62.787A10.858,10.858,0,0,1,83.1,61.573L85.243,57.5A11,11,0,0,0,90.887,59a4,4,0,0,0,1.643-.286q.571-.286.572-.714t-.572-.714l-1.857-.572-2.715-.857a5.072,5.072,0,0,1-1.929-1.286,3.429,3.429,0,0,1-.786-2.357,5.5,5.5,0,0,1,1-3.286A6.358,6.358,0,0,1,89.1,46.785,11.787,11.787,0,0,1,93.53,46a15.287,15.287,0,0,1,3.429.357,9.573,9.573,0,0,1,2.715,1.072l-2,4.072a7.5,7.5,0,0,0-2.143-.929,9.358,9.358,0,0,0-2.357-.286,3.929,3.929,0,0,0-1.786.357q-.643.357-.643.786c0,.286.214.5.571.714l1.929.571,2.715.786a4.858,4.858,0,0,1,1.929,1.286,3.429,3.429,0,0,1,.786,2.357,5.358,5.358,0,0,1-1,3.215A6.5,6.5,0,0,1,94.744,62.5a11.716,11.716,0,0,1-4.429.786,17,17,0,0,1-4-.429" transform="translate(-23.735 -13.138)" fill="#fff"/><path d="M113.63,50.715l-.357,1.929H120.2l-.786,4h-7l-.429,2.143h8.287L119.416,63H105.7l3.286-16.5h13.43l-.857,4.215Z" transform="translate(-30.191 -13.282)" fill="#fff"/><path d="M144.3,55.681a6.929,6.929,0,0,1-3.286,2.429L143.8,62.9h-5.858l-2.357-4.143h-1.357l-.857,4.143H127.8l3.286-16.5h7.429a8,8,0,0,1,5.072,1.429,4.786,4.786,0,0,1,1.786,4,6.429,6.429,0,0,1-1.143,3.858m-6.572-4.929H135.8l-.714,3.858h2.286a2.572,2.572,0,0,0,1.786-.572,2.072,2.072,0,0,0,.643-1.643q0-1.643-2.072-1.643" transform="translate(-36.503 -13.247)" fill="#fff"/><path d="M174.031,46.5,163.744,63h-5.429L154.6,46.5h5.715l2.072,9.573,5.929-9.573Z" transform="translate(-44.158 -13.282)" fill="#fff"/><path d="M181.258,46.5h5.5L183.472,63H177.9Z" transform="translate(-50.813 -13.282)" fill="#fff"/><path d="M194.8,62.258a6.858,6.858,0,0,1-4-6.429,9.787,9.787,0,0,1,1.357-5.143,9.287,9.287,0,0,1,3.715-3.5,11.287,11.287,0,0,1,5.358-1.286,9.858,9.858,0,0,1,4.215.857,5.929,5.929,0,0,1,2.715,2.429l-4,3.215a3.572,3.572,0,0,0-3.286-1.929,4.191,4.191,0,0,0-3.858,2.429,5.786,5.786,0,0,0-.572,2.572,3.072,3.072,0,0,0,.929,2.357,3.429,3.429,0,0,0,2.429.857,4.643,4.643,0,0,0,3.643-1.929l3.286,3.143a8.287,8.287,0,0,1-3.286,2.5,11,11,0,0,1-4.215.786,10.073,10.073,0,0,1-4.429-.929" transform="translate(-54.496 -13.109)" fill="#fff"/><path d="M221.93,50.715l-.357,1.929h7l-.857,4h-7l-.429,2.143h8.287L227.716,63H214l3.358-16.5h13.359l-.857,4.215Z" transform="translate(-61.124 -13.282)" fill="#fff"/><path d="M68.43,83.984a2.786,2.786,0,0,1,1,2.286,4,4,0,0,1-.572,2.215,3.858,3.858,0,0,1-1.715,1.429,6.144,6.144,0,0,1-2.572.5H62.357L61.786,93.2H59.5l2-10h4.072a4.5,4.5,0,0,1,2.857.857m-1.929,4a1.857,1.857,0,0,0,.643-1.5,1.286,1.286,0,0,0-.5-1.072,2.286,2.286,0,0,0-1.357-.357H63.429l-.714,3.5h1.929a2.715,2.715,0,0,0,1.786-.5" transform="translate(-16.995 -23.762)" fill="#fff"/><path d="M76,83.2h2.286l-1.643,8.072h5.072L81.287,93.2H74Z" transform="translate(-21.136 -23.764)" fill="#fff"/><path d="M92.73,91.058H88.086L86.8,93.2H84.3l6.5-10h2.286l2.429,10H93.23Zm-.357-1.786-.857-3.858-2.357,3.858Z" transform="translate(-24.078 -23.764)" fill="#fff"/><path d="M104.643,85.057H101.5l.357-1.857h8.715l-.357,1.857H107L105.358,93.2h-2.286Z" transform="translate(-28.991 -23.764)" fill="#fff"/><path d="M117.1,85.057l-.572,2.643h4.643l-.357,1.857h-4.643l-.714,3.643H113.1l2-10h7.572l-.357,1.857Z" transform="translate(-32.304 -23.764)" fill="#fff"/><path d="M128.485,92.687a3.929,3.929,0,0,1-1.714-1.5A4.358,4.358,0,0,1,126.2,88.9a6.072,6.072,0,0,1,.786-3.072,5.644,5.644,0,0,1,2.215-2.143,6.5,6.5,0,0,1,3.215-.786,5.787,5.787,0,0,1,2.572.572,3.929,3.929,0,0,1,1.715,1.5,4.358,4.358,0,0,1,.571,2.286,6.072,6.072,0,0,1-.786,3.072,5.643,5.643,0,0,1-2.215,2.143,6.5,6.5,0,0,1-3.215.786,5.786,5.786,0,0,1-2.572-.572m4.715-1.929a3.5,3.5,0,0,0,1.286-1.429,4.286,4.286,0,0,0,.429-1.929,2.357,2.357,0,0,0-.714-1.857,2.786,2.786,0,0,0-2-.714,3.429,3.429,0,0,0-3.215,1.929,4.286,4.286,0,0,0-.429,1.929,2.429,2.429,0,0,0,.714,1.786,2.786,2.786,0,0,0,2,.643,3.5,3.5,0,0,0,1.929-.5" transform="translate(-36.045 -23.678)" fill="#fff"/><path d="M151.887,88.7a4,4,0,0,1-2.072,1.429L151.53,93.2H149.1l-1.572-2.786h-2l-.571,2.786H142.6l2-10h4.072a4.572,4.572,0,0,1,2.858.786,2.715,2.715,0,0,1,1,2.286,3.857,3.857,0,0,1-.786,2.429m-2.215-.643a1.857,1.857,0,0,0,.643-1.5,1.214,1.214,0,0,0-.5-1.072,2.286,2.286,0,0,0-1.357-.357h-1.857l-.714,3.5h2.143a2.715,2.715,0,0,0,1.786-.5" transform="translate(-40.73 -23.761)" fill="#fff"/><path d="M170.616,83.2l-2,10h-2.143l1.143-6-3.786,4.929h-1L160.758,87.2l-1.214,6H157.4l2-10h1.857l2.5,6.215,4.858-6.215Z" transform="translate(-44.957 -23.764)" fill="#fff"/><rect width="21.431" height="2.143" transform="translate(6.715 63.222)" fill="#fff"/><rect width="21.431" height="2.143" transform="translate(139.589 63.579)" fill="#fff"/></g></g></svg>